<svg xmlns="http://www.w3.org/2000/svg" viewBox="0 0 800 800" role="img" aria-label="颐安水电工程 Logo">
  <defs>
    <linearGradient id="gold" x1="120" y1="40" x2="650" y2="710" gradientUnits="userSpaceOnUse">
      <stop offset="0" stop-color="#fff4a6"/>
      <stop offset="0.45" stop-color="#d7a72f"/>
      <stop offset="1" stop-color="#8a5a06"/>
    </linearGradient>
    <linearGradient id="blue" x1="120" y1="670" x2="690" y2="120" gradientUnits="userSpaceOnUse">
      <stop offset="0" stop-color="#061b3d"/>
      <stop offset="0.55" stop-color="#073b78"/>
      <stop offset="1" stop-color="#0b56a7"/>
    </linearGradient>
    <filter id="shadow" x="-20%" y="-20%" width="140%" height="140%">
      <feDropShadow dx="0" dy="12" stdDeviation="10" flood-color="#000" flood-opacity="0.22"/>
    </filter>
  </defs>
  <g filter="url(#shadow)">
    <path d="M72 406C90 197 244 64 454 56c141-5 252 55 314 154-99-73-209-91-334-66-168 34-288 128-362 262Z" fill="url(#gold)"/>
    <path d="M708 120c82 144 47 303-82 397-77 56-176 68-278 24 160 10 280-53 333-176 38-87 45-171 27-245Z" fill="url(#blue)"/>
    <path d="M74 503c136-111 289-118 467-36 99 45 183 42 259-9-68 125-220 170-397 85-126-61-230-57-329 22v-62Z" fill="url(#blue)"/>
    <path d="M92 587c126-75 241-68 377 5 128 68 222 54 307-24-82 124-233 166-395 86-116-57-211-50-289 18v-85Z" fill="url(#gold)"/>
    <path d="M118 508c111-78 241-78 389 0 91 48 174 46 250-8" fill="none" stroke="#fff" stroke-width="36" stroke-linecap="round" opacity="0.95"/>
    <path d="M236 389V274l88-50v205h-88Z" fill="url(#gold)"/>
    <path d="M356 426V170l106-66v348H356Z" fill="url(#gold)"/>
    <path d="M496 426V281l85-51v220h-85Z" fill="url(#gold)"/>
    <path d="M544 418h104L500 670l34-154H424l196-302-76 204Z" fill="url(#gold)" stroke="#fff3a5" stroke-width="8"/>
  </g>
</svg>